PathFileType	4	(X/Y/Z)	D:\TRACE\v60_Jaco2_6-2-23\JustArmDRS_Motion3_1-v60.trc
DataRate	CameraRate	NumFrames	NumMarkers	Units	OrigDataRate	OrigDataStartFrame	OrigNumFrames
100.00	100.00	      21	9	mm	100.00	6067	      8089
Frame#	Time	front left toe			Front right toe			aft left toe			aft right toe			Arm			FL body			FR body			AL Body			AR Body			
		X1	Y1	Z1	X2	Y2	Z2	X3	Y3	Z3	X4	Y4	Z4	X5	Y5	Z5	X6	Y6	Z6	X7	Y7	Z7	X8	Y8	Z8	X9	Y9	Z9	

6067	60.660	-145.15564	22.53571	-232.93953	253.65010	19.91590	-167.44165	-233.18155	14.26700	404.54095	175.10123	10.88642	419.51929	53.01570	1084.03625	-602.71472	-2.01689	581.65033	-342.76288	154.69452	580.84772	-321.73529	-120.13149	580.61243	594.03845	29.73797	571.20862	613.79456	
6068	60.670	-145.02032	22.73800	-232.91273	254.02385	20.13287	-167.13145	-233.21379	14.10657	404.56894	175.35425	10.93572	419.59891	53.13519	1084.44751	-602.45245	-1.89741	581.74774	-342.69434	155.05916	581.01361	-321.82901	-120.01804	580.36383	594.10114	30.06822	570.95282	613.83905	
6069	60.680	-145.12920	22.79953	-232.82788	253.97916	20.19125	-167.10092	-233.38695	13.72664	404.82947	175.46976	10.89175	419.70963	53.40417	1084.67432	-602.14703	-1.63082	582.04175	-342.54910	155.29289	581.20343	-321.62930	-119.93259	580.18250	594.23340	30.33798	570.58167	613.92395	
6070	60.690	-144.54289	22.86383	-232.67451	254.01097	20.33394	-166.98370	-233.32468	13.49474	404.95679	175.69269	10.62941	419.73276	53.64288	1084.99036	-601.78845	-1.85470	582.71802	-342.88843	155.52444	581.51111	-321.52206	-119.83279	579.89014	594.37543	30.32054	570.26129	614.02698	
6071	60.700	-144.38228	22.95181	-232.61624	254.14514	20.49730	-166.84770	-233.27971	13.30424	404.96304	175.93588	10.25675	419.74432	54.16806	1085.42493	-601.28186	-1.65755	582.92352	-342.88165	155.62634	581.90369	-321.54044	-119.69804	579.64825	594.46320	30.24512	570.08289	614.20898	
6072	60.710	-144.12561	23.05825	-232.51208	254.35405	20.68059	-166.65143	-233.23521	13.15518	404.94531	176.07207	9.91652	419.89359	54.33726	1085.94873	-600.80646	-1.48972	583.21039	-342.73325	155.92039	582.22711	-321.37259	-119.52589	579.42303	594.56061	30.47854	569.72675	614.36365	
6073	60.720	-144.02144	23.17877	-232.39383	254.46523	20.83364	-166.57158	-233.10555	12.93408	404.99924	176.16440	9.63133	420.06131	54.25898	1086.29492	-600.39313	-1.41382	583.40442	-342.56100	156.02533	582.34064	-321.35916	-119.35233	579.03564	594.63599	30.79495	569.31073	614.55054	
6074	60.730	-143.96407	23.29779	-232.26187	254.68542	21.00097	-166.47095	-232.79622	12.57248	405.09628	176.25583	9.39921	420.27585	54.38236	1086.77185	-599.85675	-1.17116	583.59418	-342.42792	156.25311	582.45044	-321.12097	-119.27293	578.69257	594.73492	30.83452	569.03589	614.73157	
6075	60.740	-143.94539	23.44466	-232.15099	254.64964	21.09732	-166.38306	-232.76471	12.44909	405.15765	176.27271	9.21393	420.43851	54.59056	1087.24878	-599.49609	-1.03105	583.84253	-342.29306	156.47643	582.63269	-320.98749	-119.12880	578.21631	594.89948	30.90006	568.65997	614.88202	
6076	60.750	-143.88483	23.52969	-232.05351	254.72432	21.31135	-166.34138	-232.67787	12.31785	405.23578	176.31314	9.06342	420.54901	54.80512	1087.72827	-598.92267	-0.87670	584.15778	-342.22275	156.60756	582.86261	-320.88864	-118.84222	577.90765	595.12079	31.06036	568.21295	615.00336	
6077	60.760	-143.86377	23.68981	-231.87978	254.78467	21.38351	-166.26581	-232.53821	12.09026	405.33347	176.14503	8.81858	420.47821	55.22464	1087.90125	-598.48846	-0.47244	584.32343	-341.79526	156.67986	583.13306	-320.74957	-118.46159	577.62878	595.34344	31.11943	567.96533	615.12714	
6078	60.770	-143.82474	23.76538	-231.71965	254.71866	21.43987	-166.26144	-232.66624	12.05151	405.39771	175.98285	8.48656	420.48740	55.06836	1088.40027	-598.13837	-0.59596	584.76923	-341.86615	156.82246	583.28680	-320.60760	-118.05667	577.42450	595.42273	31.45396	567.56927	615.28784	
6079	60.780	-143.73087	23.84410	-231.60979	254.73219	21.51738	-166.23366	-232.69084	11.81103	405.48141	175.87415	8.14122	420.47235	55.17356	1088.88611	-597.71893	-0.26235	584.67297	-341.42532	156.79066	583.57721	-320.55685	-118.24969	577.29474	595.52313	31.73377	567.28229	615.42694	
6080	60.790	-143.58754	23.89461	-231.47208	254.77103	21.62477	-166.25864	-232.72198	11.51712	405.58798	175.93735	7.94286	420.49771	55.31408	1089.23840	-597.35583	-0.27792	584.76550	-341.33987	156.84610	583.81421	-320.41272	-118.03799	577.07410	595.70966	31.78618	567.15735	615.55811	
6081	60.800	-143.54147	23.96233	-231.40773	254.74474	21.75457	-166.13814	-232.73097	11.31983	405.67505	176.02803	7.73211	420.55576	55.57728	1089.48157	-596.85339	-0.27420	585.03912	-341.25449	156.78828	584.03021	-320.21024	-117.86719	576.84546	595.90430	31.98648	566.91205	615.74707	
6082	60.810	-143.50304	24.05020	-231.37161	254.75214	21.94492	-166.04472	-232.73921	11.10069	405.76358	176.23988	7.56962	420.72949	55.84694	1089.57776	-596.44653	-0.08707	585.14172	-340.84180	156.81747	584.21741	-320.04443	-117.66418	576.55615	596.12109	32.19553	566.73663	615.89014	
6083	60.820	-143.45332	24.13156	-231.25929	254.69667	22.03105	-166.00395	-232.83949	10.88361	405.76889	176.12349	7.30678	420.79938	55.84150	1089.84753	-596.18945	-0.34055	585.64679	-340.96429	157.00294	584.48816	-319.78146	-117.73329	576.27307	596.27539	32.28967	566.40527	615.94098	
6084	60.830	-143.20665	24.09461	-231.04024	254.62358	22.08506	-165.99164	-232.92480	10.61733	405.87885	176.16699	7.13954	420.98325	55.80132	1090.16260	-595.69135	-0.25029	585.86823	-340.77655	157.02957	584.61969	-319.51791	-117.86304	575.94257	596.44061	32.11253	566.39484	615.97339	
6085	60.840	-143.99524	25.36619	-231.55139	254.59003	22.28070	-165.87723	-233.00810	10.35834	405.94550	176.12473	6.93528	421.03903	55.70907	1090.61951	-595.32220	-0.25188	586.07892	-340.65579	156.87498	584.63397	-319.29535	-117.81837	575.60193	596.67316	32.37048	565.79126	616.14001	
6086	60.850	-144.13615	25.56765	-231.47379	254.55817	22.42710	-165.76701	-233.23967	10.14647	405.98212	175.95518	6.55401	421.11722	55.90569	1091.04456	-594.86340	-0.20055	586.20386	-340.52771	156.89021	584.71765	-319.19885	-117.72263	575.48773	596.82434	32.29348	565.32971	616.35870	
6087	60.860	-144.30891	25.78119	-231.36690	254.46738	22.60971	-165.56013	-233.30678	9.94438	406.10992	175.62407	6.18549	421.19620	55.91695	1091.38342	-594.44202	-0.20452	586.48718	-340.47458	156.95709	584.87079	-319.01648	-117.67737	575.35077	597.04401	32.23227	565.10718	616.54987	
